<?xml version="1.0" encoding="UTF-8"?>
<svg id="Layer_1" data-name="Layer 1" xmlns="http://www.w3.org/2000/svg" viewBox="0 0 1268.74 317.83">
  <defs>
    <style>
      .cls-1 {
        stroke-width: 0px;
      }

      .cls-1, .cls-2 {
        fill: #fff;
        opacity: .5;
      }

      .cls-2 {
        stroke: #fff;
      }
    </style>
  </defs>
  <path id="Vector" class="cls-1" d="m1264.9,133.61c-4.24-5.91-8.48-11.75-12.8-17.59-17.1-23.02-35.67-45.41-58.83-62.52-23.78-17.66-52.43-27.89-82.27-26.22-15.54.89-30.76,4.74-44.85,11.34-14.05,6.68-26.36,16.34-38.04,26.43-11.75,10.08-23.02,20.79-35.81,29.55-12.76,8.69-26.99,15.01-42,18.64-30.74,7.58-62.86,5.63-94.16,5.08-29.83-.56-59.6.28-88.6,8.35-52.36,14.53-97.5,46.52-141.24,77.54-44.44,31.57-89.71,64.32-142.42,80.46-2.71.77-3.62,4.94-.83,6.33,2.36,1.18,4.66,2.3,7.02,3.48,3.96,2.02,7.51-3.96,3.48-5.98-2.36-1.18-4.66-2.3-7.02-3.48-.28,2.09-.56,4.24-.84,6.33,6.33-1.88,12.52-4.03,18.64-6.4,50.56-19.61,94.09-52.71,138.11-83.66,43.25-30.39,88.87-60.57,141.52-71.42,30.32-6.26,61.33-4.73,92.07-4.17,30.11.56,61.26.42,89.99-9.88,13.96-5.16,27.01-12.51,38.67-21.77,11.96-9.32,22.95-19.82,34.63-29.48,12.24-10.01,25.38-18.85,40.4-24.06,14.67-5.08,30.2-7.16,45.69-6.12,60.85,4.17,100.84,57.23,133.45,102.71,2.64,3.62,8.62.14,6.05-3.48Z"/>
  <path id="Vector-2" class="cls-2" d="m1268.1,83.33c-6.44-7.67-13.36-14.92-20.72-21.7-60.71-55.7-147.78-75.31-226.36-50.63-40.75,12.8-74.76,36.65-104.73,66.62-31.22,31.22-59.6,65.72-98.54,87.83-84.84,48.12-186.23,39.15-279.69,34.07-93.88-5.15-187.2.56-279,20.72C168.86,240.05,81.89,272.45.72,316.5c-.49.28-.07,1.04.42.77,9.94-5.42,19.98-10.66,30.11-15.72,82.6-41.17,170.57-70.52,261.33-87.2,45.68-8.41,91.9-13.57,138.32-15.45,48.33-1.88,96.38.9,144.65,3.55,87.55,4.73,183.59,5.35,258.9-46.45,34.84-23.99,61.13-57.79,91.58-86.72,32.06-30.46,70.1-52.5,113.42-62.38,83.8-19.05,172.81,11.41,228.1,77.05.35.42.97-.21.56-.63h0Z"/>
</svg>