<svg id="Component_44_1" data-name="Component 44 – 1" xmlns="http://www.w3.org/2000/svg" width="18.75" height="18.75" viewBox="0 0 18.75 18.75">
  <path id="https:_www.flaticon.com_free-icon_telephone-call_3059457_related_id_3059457" data-name="https://www.flaticon.com/free-icon/telephone-call_3059457?related_id=3059457" d="M18.568,13.962a1.432,1.432,0,0,1,.182.6c0,1.086-4.023,4.188-4.7,4.188-.039,0-4.042-.057-9.057-4.987C.057,8.742,0,4.74,0,4.7,0,4.022,3.1,0,4.187,0A1.431,1.431,0,0,1,5.254.6c.028.034,2.707,3.78,2.531,4.792-.086.489-.419.768-1.082,1.324-.11.093-.367.309-.551.477a7.785,7.785,0,0,0,.42,1.032,8.563,8.563,0,0,0,3.951,3.951,7.786,7.786,0,0,0,1.032.42c.167-.183.384-.44.474-.547.559-.666.838-1,1.326-1.086,1.012-.163,4.759,2.5,4.792,2.531a1.432,1.432,0,0,1,.421.465ZM13.98,17.5a16.9,16.9,0,0,0,3.476-2.942c-.024-.022-.061-.056-.113-.1a21.966,21.966,0,0,0-3.8-2.236c-.1.088-.361.4-.557.634a6.3,6.3,0,0,1-.892.949.619.619,0,0,1-.469.107,7.118,7.118,0,0,1-1.651-.6,9.819,9.819,0,0,1-4.53-4.529,7.136,7.136,0,0,1-.6-1.651.625.625,0,0,1,.107-.469A6.271,6.271,0,0,1,5.9,5.765,7.427,7.427,0,0,0,6.53,5.2,22.119,22.119,0,0,0,4.3,1.406c-.043-.049-.076-.086-.1-.111A16.909,16.909,0,0,0,1.254,4.771c.043.522.475,3.89,4.621,8.111,4.2,4.126,7.563,4.569,8.1,4.615Z" fill="#191919"/>
  <path id="https:_www.flaticon.com_free-icon_telephone-call_3059457_related_id_3059457-2" data-name="https://www.flaticon.com/free-icon/telephone-call_3059457?related_id=3059457" d="M11.651,6.1A3.754,3.754,0,0,0,9,5V3.75a5.006,5.006,0,0,1,5,5H12.75A3.754,3.754,0,0,0,11.651,6.1Z" transform="translate(0 1)" fill="#191919"/>
  <path id="https:_www.flaticon.com_free-icon_telephone-call_3059457_related_id_3059457-3" data-name="https://www.flaticon.com/free-icon/telephone-call_3059457?related_id=3059457" d="M13.859,3.891A6.883,6.883,0,0,0,9,1.875V.625A8.134,8.134,0,0,1,17.125,8.75h-1.25a6.883,6.883,0,0,0-2.016-4.859Z" transform="translate(0 1)" fill="#191919"/>
</svg>
