<svg xmlns="http://www.w3.org/2000/svg" width="17.917" height="16.25" viewBox="0 0 17.917 16.25">
  <path id="https:_www.flaticon.com_free-icon_message_7831721_related_id_7831721_origin_search" data-name="https://www.flaticon.com/free-icon/message_7831721?related_id=7831721&amp;origin=search" d="M12.693,5.986a.625.625,0,0,1,.865.9Zm3.968.459a.625.625,0,0,1,1.25-.015ZM11.466.006a.625.625,0,0,1-.015,1.25ZM2.624,5.174,1.016,3.567,1.9,2.683,3.508,4.29Zm.884-.884a37.612,37.612,0,0,0,3.278,3.07,3.534,3.534,0,0,0,2.173.913v1.25a4.754,4.754,0,0,1-2.931-1.17,38.515,38.515,0,0,1-3.4-3.18ZM8.125,0H9.792V1.25H8.125ZM9.792,16.25H8.125V15H9.792Zm-1.667,0c-1.548,0-2.76,0-3.72-.1a4.852,4.852,0,0,1-2.43-.812l.735-1.011a3.638,3.638,0,0,0,1.83.581c.877.1,2.009.1,3.585.1ZM1.25,8.125c0,1.576,0,2.708.1,3.585a3.637,3.637,0,0,0,.581,1.83l-1.011.735A4.853,4.853,0,0,1,.1,11.845C0,10.885,0,9.674,0,8.125Zm.725,7.21a4.791,4.791,0,0,1-1.06-1.06l1.011-.735a3.541,3.541,0,0,0,.784.783Zm15.941-7.21c0,1.549,0,2.76-.1,3.72A4.853,4.853,0,0,1,17,14.275L15.99,13.54a3.638,3.638,0,0,0,.581-1.83c.095-.877.1-2.009.1-3.585ZM9.792,15c1.576,0,2.708,0,3.585-.1a3.638,3.638,0,0,0,1.83-.581l.735,1.011a4.853,4.853,0,0,1-2.43.812c-.96.1-2.171.1-3.72.1ZM17,14.275a4.791,4.791,0,0,1-1.06,1.06l-.735-1.011a3.54,3.54,0,0,0,.783-.783ZM8.125,1.25c-1.576,0-2.708,0-3.585.1a3.637,3.637,0,0,0-1.83.581L1.975.915A4.853,4.853,0,0,1,4.405.1C5.365,0,6.577,0,8.125,0ZM2.71,1.926a3.542,3.542,0,0,0-.784.784L.915,1.975A4.792,4.792,0,0,1,1.975.915ZM13.557,6.888c-1.693,1.623-2.99,2.636-4.6,2.636V8.274c1.044,0,2-.628,3.734-2.288Zm3.109,1.237c0-.623,0-1.178-.006-1.68l1.25-.015c.006.511.006,1.075.006,1.7ZM9.792,0c.612,0,1.169,0,1.674.006l-.015,1.25c-.5-.006-1.045-.006-1.659-.006Zm8.125,2.292a2.292,2.292,0,0,1-2.292,2.292V3.333a1.042,1.042,0,0,0,1.042-1.042ZM15.625,4.583a2.292,2.292,0,0,1-2.292-2.292h1.25a1.042,1.042,0,0,0,1.042,1.042ZM13.333,2.292A2.292,2.292,0,0,1,15.625,0V1.25a1.042,1.042,0,0,0-1.042,1.042ZM15.625,0a2.292,2.292,0,0,1,2.292,2.292h-1.25A1.042,1.042,0,0,0,15.625,1.25ZM0,8.125C0,6.78,0,5.693.066,4.808a6.257,6.257,0,0,1,.513-2.27l1.126.543A5.061,5.061,0,0,0,1.313,4.9c-.063.827-.063,1.861-.063,3.223ZM.579,2.538a3.645,3.645,0,0,1,.336-.563l1.011.735a2.4,2.4,0,0,0-.221.371ZM1.9,2.683l-.316-.316L.7,3.251l.316.316Z" fill="#191919"/>
</svg>
