<svg id="Component_45_1" data-name="Component 45 – 1" xmlns="http://www.w3.org/2000/svg" width="16" height="20" viewBox="0 0 16 20">
  <path id="https:_www.flaticon.com_free-icon_location_1008001_term_location_page_1_position_46_page_1_position_46_related_id_1008001_origin_search" data-name="https://www.flaticon.com/free-icon/location_1008001?term=location&amp;page=1&amp;position=46&amp;page=1&amp;position=46&amp;related_id=1008001&amp;origin=search" d="M16,8.459c0,4.571-4.087,8.373-6.283,10.415-.305.284-.569.529-.779.736a1.324,1.324,0,0,1-1.876,0c-.21-.207-.473-.452-.779-.736C4.087,16.832,0,13.03,0,8.459A8.654,8.654,0,0,1,2.343,2.478a7.7,7.7,0,0,1,11.314,0A8.654,8.654,0,0,1,16,8.459Zm-1.108,0A7.106,7.106,0,0,0,8,1.172,7.106,7.106,0,0,0,1.108,8.459c0,4.041,3.843,7.615,5.907,9.535.312.29.581.541.8.76a.257.257,0,0,0,.364,0c.222-.219.491-.47.8-.76C11.049,16.074,14.892,12.5,14.892,8.459Z" fill="#191919"/>
  <path id="https:_www.flaticon.com_free-icon_location_1008001_term_location_page_1_position_46_page_1_position_46_related_id_1008001_origin_search-2" data-name="https://www.flaticon.com/free-icon/location_1008001?term=location&amp;page=1&amp;position=46&amp;page=1&amp;position=46&amp;related_id=1008001&amp;origin=search" d="M11.525,8.139A3.635,3.635,0,0,1,8,11.867,3.635,3.635,0,0,1,4.474,8.139,3.635,3.635,0,0,1,8,4.412,3.635,3.635,0,0,1,11.525,8.139Zm-1.108,0A2.493,2.493,0,0,0,8,5.583,2.493,2.493,0,0,0,5.582,8.139,2.493,2.493,0,0,0,8,10.7,2.493,2.493,0,0,0,10.417,8.139Z" fill="#191919"/>
</svg>
